# xmcd CD database file
#
# Track frame offsets:
#	150
#	20850
#	39075
#	63300
#	89775
#	105825
#	119400
#	155550
#	175500
#	207300
#	226125
#	256275
#
# Disc length: 3903 seconds
#
# Revision: 0
# Processed by: cddbd v1.5.2PL0 Copyright (c) Steve Scherf et al.
# Submitted via: CDex 1.70beta2
#
DISCID=960f3d0c
DTITLE=Cedric Caillaud and Harry Allen  - Emma's Groove 
DYEAR=2008
DGENRE=Jazz
TTITLE0=C￩dric Caillaud et Harry Allen - Our Delight
TTITLE1=C￩dric Caillaud et Harry Allen - Emma's Groove 
TTITLE2=C￩dric Caillaud et Harry Allen - Dancing on the Celling
TTITLE3=C￩dric Caillaud et Harry Allen - That's All
TTITLE4=C￩dric Caillaud et Harry Allen - Do nothin' till you hear from me
TTITLE5=C￩dric Caillaud et Harry Allen - Yours is my heart alone
TTITLE6=C￩dric Caillaud et Harry Allen - The Jams are coming
TTITLE7=C￩dric Caillaud et Harry Allen - New Father's Bop
TTITLE8=C￩dric Caillaud et Harry Allen - Robbin's Nest
TTITLE9=C￩dric Caillaud et Harry Allen - I want to be Happy
TTITLE10=C￩dric Caillaud et Harry Allen - Blame it on my youth
TTITLE11=C￩dric Caillaud et Harry Allen - What can I say dear
EXTD=YEAR: 2008
EXTT0=
EXTT1=
EXTT2=
EXTT3=
EXTT4=
EXTT5=
EXTT6=
EXTT7=
EXTT8=
EXTT9=
EXTT10=
EXTT11=
PLAYORDER=
